PathFileType	4	(X/Y/Z)	Patient4_TMGait_0pt8_01_left_14.trc.trc
DataRate	CameraRate	NumFrames	NumMarkers	Units	OrigDataRate	OrigDataStartFrame	OrigNumFrames
90.909090909091	90.909090909091	4	33	mm	90.909090909091	71	       141
Frame#	Time	Sacral			L.Shoulder			Chest			R.Shoulder			Neck			R.ASIS			L.ASIS			R.Thigh.Superior			R.Thigh.Lateral			R.Thigh.Inferior			R.Patella			L.Thigh.Superior			L.Thigh.Lateral			L.Thigh.Inferior			L.Patella			L.Shank.Superior			L.Shank.Lateral			L.Shank.Inferior			R.Shank.Superior			R.Shank.Lateral			R.Shank.Inferior			R.Heel			R.Midfoot.Superior			R.Midfoot.Lateral			R.Toe			L.Heel			L.Midfoot.Lateral			L.Midfoot.Superior			L.Toe			L.Elbow			L.Wrist			R.Elbow			R.Wrist			
		X1	Y1	Z1	X2	Y2	Z2	X3	Y3	Z3	X4	Y4	Z4	X5	Y5	Z5	X6	Y6	Z6	X7	Y7	Z7	X8	Y8	Z8	X9	Y9	Z9	X10	Y10	Z10	X11	Y11	Z11	X12	Y12	Z12	X13	Y13	Z13	X14	Y14	Z14	X15	Y15	Z15	X16	Y16	Z16	X17	Y17	Z17	X18	Y18	Z18	X19	Y19	Z19	X20	Y20	Z20	X21	Y21	Z21	X22	Y22	Z22	X23	Y23	Z23	X24	Y24	Z24	X25	Y25	Z25	X26	Y26	Z26	X27	Y27	Z27	X28	Y28	Z28	X29	Y29	Z29	X30	Y30	Z30	X31	Y31	Z31	X32	Y32	Z32	X33	Y33	Z33	

71	15.680000000000	887.037209123861	989.153123827830	429.363008814139	1066.364949475010	1426.711890073429	266.201551941868	1158.237989009408	1354.693717947351	432.087891940857	1060.637648262763	1420.573013522393	601.837465946359	1037.985371248946	1481.385510881808	422.038405940629	1111.208535143608	928.296452406923	555.200583635482	1105.302779485491	953.515575830673	280.061854179455	1189.615992991155	759.850786795177	525.718031864572	1150.082635222118	636.162459452367	601.368210207575	1240.720184102409	603.630986067383	521.439853799333	1277.995127520253	522.307171033519	539.551387480609	1097.791923910787	722.437204696848	304.264592590461	973.181331933614	633.634215875560	243.670904079972	1029.100828860192	537.131435641448	306.917960471065	1011.721555444541	471.978411698522	315.831672070262	977.155685030483	407.554575025711	309.483115369855	871.617541904430	303.953700637385	264.751309117548	913.411621975110	188.440962566544	335.927964108568	1264.357323962773	432.334775601374	548.675250831409	1213.372100460227	315.697809668945	608.836318008453	1287.189718850089	232.782487818008	558.190819997529	1201.993137108037	43.665316783522	524.125318957022	1360.180013451699	122.900115790357	572.033697534455	1282.451188876368	45.171213670758	602.351566755397	1484.025644231922	90.223631860275	605.543008407035	778.318063832422	39.082299233380	393.034413964054	842.998522806785	34.685343231771	304.918721754072	928.790269927798	95.484492966533	323.392669420947	1053.417071466482	43.878025904754	281.275972185760	1175.302570895551	1124.060719323308	97.987221128755	1430.068398201235	1100.823569805989	134.372524393959	906.450146818192	1111.922868396202	703.220025353437	852.047095764955	858.573212617656	722.743956815066	
72	15.691000000000	889.173777207151	986.982982803150	430.969004653668	1067.680763909117	1424.901447530078	267.911290665440	1159.553518731642	1353.064468182862	433.861933891062	1061.573213160744	1418.918638125268	603.421053913908	1039.064059043107	1479.441536951291	423.658169701705	1113.562323450276	926.124572651610	556.658769885957	1107.295208522741	951.655633533681	281.509759772541	1190.835476642664	756.485118868059	527.064611546230	1149.448479707540	632.767693056944	601.612386565338	1240.006220279302	600.201110489864	521.709432279472	1276.136449318671	519.264253148331	538.771779917946	1098.674142197899	720.377516650341	305.025874788117	973.277766928713	632.245302241388	244.701406585034	1028.584015412984	535.216437299862	307.826254341664	1010.596702754656	469.528177180489	316.689316681328	974.723043263620	405.565028304240	310.238276029805	867.165879742436	303.993560329162	265.289941536219	906.568435580234	187.526050590583	336.111967775022	1263.809003255582	429.200039313815	548.156506552329	1213.882438909121	311.858559534678	607.666908499902	1288.784040096218	229.970638283767	556.972857938614	1205.054860292939	41.457293957484	522.934805652025	1363.150466313320	120.439854626649	569.753216981983	1285.660953043187	43.294802714437	600.903731850240	1487.170352334083	87.863181302952	603.089590014412	769.391344514949	39.257571498523	392.728304712989	834.229777964677	34.637548553673	304.783296160737	920.229283051621	95.372605176571	323.300312582320	1044.808707721530	43.292591735279	281.192331540045	1177.972011022298	1123.310533995251	99.334468178310	1432.572669599088	1111.575438529774	137.886607013365	901.393667654708	1114.546066835688	704.395263816964	842.179543511722	862.334635795107	723.757823639016	
73	15.702000000000	891.358988936782	984.906592356210	432.832500879011	1068.973429951005	1423.126712677169	269.697734720060	1160.927310733570	1351.553892474225	435.707709558049	1062.621048909065	1417.383714271636	605.114041629325	1040.209196398218	1477.607110815874	425.375487784242	1116.060282503617	924.117602247343	558.276032826692	1109.342901265090	949.841122329309	283.146435548455	1192.643668251024	753.674369895410	528.467869425891	1149.480598447633	629.810134527173	601.719137131847	1240.124323179766	597.376304138111	522.041598904030	1274.941881828496	516.334730864656	538.038616160866	1099.933482652734	718.394349536040	305.969547959515	973.855588438325	630.790771512985	245.988161427540	1028.767431240860	533.239043286177	308.852443568778	1010.254611644607	466.905990843156	317.623947325988	972.866992883675	403.440667187115	311.099545944861	863.118976368674	304.161047082501	265.974494586320	899.952495198161	186.656169811929	336.303321957604	1263.322008486451	426.070841661757	547.587280645918	1213.567562655786	308.470061185550	606.434453695802	1288.740293392971	227.049219776915	555.640028486483	1204.701532008118	40.185078293144	521.630377775267	1363.360654941783	117.385612411499	567.282195559344	1285.426120534416	41.711934798526	599.392253707403	1487.229927171744	83.790430621622	600.492593351182	760.467246057010	39.688665274197	392.343794691872	825.486696922596	34.669708770931	304.609956424858	911.766682497877	95.280481642068	323.135806927322	1036.235949138232	42.690503011722	281.081058864836	1180.192182936975	1122.260646381451	100.918445380593	1434.136493323746	1121.130334274037	141.476540467624	897.258423132833	1116.876449693438	705.634473577740	833.916060393545	865.660581167902	724.771805702067	
74	15.713000000000	893.557905428901	983.004702871675	434.916539823495	1070.265893473871	1421.458520012111	271.555649102792	1162.367699398217	1350.213754193718	437.621282316047	1063.788682712437	1416.011401826125	606.916449460735	1041.434631833228	1475.951261444149	427.186516952101	1118.661518408837	922.359165751748	560.054125492667	1111.424124480367	948.130062354438	284.975955656482	1195.007437204584	751.487716495729	529.929787710985	1150.168335294099	627.389979616016	601.766053568986	1241.051862851754	595.208793245136	522.499119733961	1274.443675810511	513.627808316287	537.434540217597	1101.528801625432	716.547630906616	307.102038726764	974.895054551847	629.314152443802	247.516336255137	1029.670503596257	531.248771660532	309.967620494338	1010.732135586829	464.154830709906	318.566409238496	971.600649112970	401.241750515365	312.018675570517	859.498219621171	304.534054907553	266.779013927987	893.614862774517	185.916561454572	336.466847183502	1262.978033118443	423.077475293209	547.042562409267	1212.672958886454	305.603858690320	605.334937621302	1287.328457174371	224.119188487402	554.317807574094	1201.393513671041	39.653550105268	520.367555489035	1361.160686855500	113.947505901870	564.836265229749	1282.230504001342	40.384703337091	597.976596771784	1484.643199557879	78.469720373643	597.931551864528	751.582921680364	40.538700725645	391.876637325339	816.783642340071	34.862666001239	304.393976170082	903.454021754546	95.227289922502	322.870835152481	1027.691324312048	42.074722823049	280.945061463938	1181.907230430376	1120.931138016462	102.739686411780	1434.840787727633	1129.407395436826	145.112227382953	894.167221325498	1118.797714158874	706.935330057477	827.298652414050	868.440152525584	725.831002372417	
